<svg width="277" height="234" xmlns="http://www.w3.org/2000/svg">
 <!-- Generator: Sketch 55.1 (78136) - https://sketchapp.com -->

 <title>Logo / Vertical / Regular</title>
 <desc>Created with Sketch.</desc>
 <g>
  <title>background</title>
  <rect fill="none" id="canvas_background" height="236" width="279" y="-1" x="-1"/>
 </g>
 <g>
  <title>Layer 1</title>
  <g fill-rule="evenodd" fill="none" id="Logo-/-Vertical-/-Regular-">
   <path fill="#282828" id="Shape" d="m256.13463,283.9852l0,0m-194.86549,-100.08716c-9.73562,5.63344 -24.10425,-1.04021 -32.09318,-14.90595c-7.98893,-13.86574 -6.57297,-29.67274 3.16217,-35.30618l10.34314,-5.98447c-5.3293,3.74382 -5.62423,18.24182 2.3647,32.10756c7.98941,13.86574 20.6061,20.75365 26.56583,18.10409l-10.34266,5.98495zm119.60593,-36.88893c7.70832,-4.46026 5.35554,-32.55761 -10.34648,-59.81082c-15.7025,-27.25226 -39.10521,-43.16926 -46.51669,-38.88022c-7.41195,4.28856 -5.35602,32.55761 10.34648,59.81035c15.7025,27.25321 38.80837,43.34143 46.51669,38.88069zm-116.41604,-10.76948c9.64924,-5.93904 32.74174,-21.02865 47.26643,-36.67639c-3.09727,-7.07539 -5.54787,-15.60852 -5.54787,-15.60852c-7.39287,13.07805 -24.93941,31.21896 -43.82269,43.22904c0.30591,3.13979 1.19452,6.33314 2.10413,9.05587zm119.38636,-56.7466c21.03323,36.50517 23.82076,74.35187 6.2265,84.53308c-3.84987,2.22774 -8.3755,1.90061 -12.67874,0.97326c-7.28787,-1.57013 -13.62413,-6.061 -24.71367,-8.36621c-17.41101,-3.61948 -37.57901,-1.27887 -55.05397,6.69565c2.45061,3.07952 4.24597,5.12648 7.55036,8.75504c0.27918,-0.16165 0.55025,-0.31852 0.81321,-0.47109c2.61955,-1.518 5.91916,-1.05312 8.04954,1.10096c1.30429,1.31809 2.67539,2.64861 4.0169,3.90309c0.75355,0.70543 1.09764,1.749 0.89338,2.76195c-0.0816,0.40414 -0.18517,0.8604 -0.3145,1.3444c-0.44955,1.68156 -1.09764,3.24691 -1.09764,3.24691c5.55694,4.69796 11.13344,8.56469 16.5725,11.49309c2.08123,1.1196 2.06453,4.10874 -0.03722,5.18913c-3.94531,2.0283 -8.33636,4.19339 -13.17649,6.41108c-2.92116,1.33866 -6.30763,1.21287 -9.10137,-0.37543c-9.04076,-5.13891 -18.4552,-12.83222 -27.43774,-22.54235c-2.53794,-2.75048 -4.94942,-5.54113 -6.93997,-8.00513c-0.93777,-1.16074 -1.78009,-1.70835 -3.04906,-1.99961c-0.19805,-0.03443 -0.39611,-0.06982 -0.60036,-0.11478c-0.00191,0 -0.0043,-0.00048 -0.00621,-0.00096c-0.00286,-0.00048 -0.00477,-0.00191 -0.00763,-0.00239c-6.36538,-1.40895 -15.74212,-7.86691 -21.72618,-18.2533c-7.98893,-13.86574 -6.90561,-29.48 -2.06118,-32.28357l11.34056,-6.56222c18.97777,-10.98182 33.91097,-29.57995 40.29257,-48.94521c3.55159,-10.77713 2.83813,-18.52161 5.12456,-25.63239c1.3501,-4.19818 3.32968,-8.2897 7.17955,-10.51744c17.59474,-10.18122 48.90859,11.15878 69.9423,47.66444zm-28.55524,38.34007c0,0 -5.16035,-5.97348 -10.71586,-15.61618c-5.55598,-9.64222 -8.10156,-17.11265 -8.10156,-17.11265l12.107,-2.72226c1.63454,-0.36874 3.33922,0.26687 4.31565,1.63135c2.18813,3.05656 4.29751,6.314 6.27995,9.75461c1.97862,3.43439 3.74105,6.88456 5.29494,10.30078c0.69771,1.53426 0.39849,3.33874 -0.74163,4.57791l-8.43849,9.18644zm73.5473,-61.20687c1.14727,1.991 0.41996,4.53869 -1.604,5.62052l-20.76168,11.099c-2.85912,1.6543 -6.54911,0.66382 -8.20035,-2.20192c-1.65076,-2.86526 -0.6624,-6.56317 2.19672,-8.21795l19.97138,-12.47065c1.94665,-1.21622 4.51179,-0.57344 5.65907,1.41756l2.73886,4.75344zm16.19954,54.5479c0.23671,2.28704 -1.46416,4.31534 -3.75299,4.47556l-23.47334,1.64331c-3.28433,0.34147 -6.24988,-2.07183 -6.59063,-5.36274c-0.34026,-3.29139 2.06787,-6.26331 5.35173,-6.60479l23.3106,-3.21917c2.2726,-0.31422 4.35287,1.32144 4.58958,3.608l0.56505,5.45983zm-57.851,-100.40116l4.43687,3.21869c1.85788,1.34822 2.23203,3.97148 0.82514,5.78744l-14.4321,18.62539c-1.93615,2.68017 -5.70822,3.28517 -8.38266,1.34487c-2.67443,-1.94031 -3.27813,-5.72096 -1.34198,-8.40113l13.15119,-19.55418c1.28186,-1.90682 3.88518,-2.3693 5.74354,-1.02108z"/>
  </g>
 </g>
</svg>